<?xml version="1.0" standalone="no"?>
<!DOCTYPE svg PUBLIC "-//W3C//DTD SVG 20010904//EN"
 "http://www.w3.org/TR/2001/REC-SVG-20010904/DTD/svg10.dtd">
<svg version="1.0" xmlns="http://www.w3.org/2000/svg"
 width="880.000000pt" height="500.000000pt" viewBox="0 0 880.000000 500.000000"
 preserveAspectRatio="xMidYMid meet">
<metadata>
Created by potrace 1.16, written by Peter Selinger 2001-2019
</metadata>
<g transform="translate(0.000000,500.000000) scale(0.100000,-0.100000)"
fill="#000000" stroke="none">
<path d="M4335 4029 c-49 -5 -119 -18 -154 -29 -35 -11 -69 -20 -74 -20 -18 0
-176 -74 -232 -110 -108 -67 -226 -172 -301 -266 -104 -131 -194 -327 -222
-484 -40 -217 -13 -490 64 -660 36 -77 69 -145 75 -150 3 -3 12 -16 19 -29 7
-14 17 -30 21 -35 110 -137 133 -161 216 -233 42 -37 135 -100 167 -114 12 -5
28 -13 36 -19 46 -30 183 -78 300 -106 112 -27 345 -24 465 5 278 68 488 197
647 401 32 41 63 80 68 87 40 50 119 229 150 340 39 140 44 426 10 538 -43
143 -69 212 -107 284 -40 76 -56 101 -103 165 -8 12 -55 61 -105 111 -251 251
-572 362 -940 324z m188 -448 c13 -5 31 -24 39 -43 37 -80 58 -127 58 -135 1
-4 9 -26 20 -48 11 -22 19 -44 20 -48 0 -5 6 -23 14 -40 8 -18 29 -66 46 -107
17 -41 38 -88 45 -105 7 -16 25 -59 40 -95 14 -36 33 -79 41 -97 8 -17 14 -34
14 -38 0 -4 6 -21 14 -38 8 -18 29 -66 46 -107 17 -41 37 -88 45 -105 53 -124
65 -164 55 -191 -14 -35 -38 -53 -73 -54 -27 0 -66 15 -77 30 -4 6 -168 138
-450 364 -41 33 -86 70 -99 83 -22 22 -25 22 -36 6 -7 -10 -18 -36 -25 -58 -7
-22 -16 -44 -20 -50 -4 -5 -13 -28 -20 -50 -7 -22 -16 -44 -20 -50 -4 -5 -13
-28 -20 -50 -7 -22 -16 -44 -20 -50 -4 -5 -13 -27 -20 -48 -7 -22 -18 -51 -26
-65 -8 -15 -14 -33 -14 -39 0 -10 -25 -13 -89 -13 l-90 0 15 38 c8 20 22 51
30 69 8 17 14 34 14 38 0 3 9 27 21 53 33 74 45 102 79 182 17 41 38 89 46
107 8 17 14 35 14 40 1 4 9 26 20 48 11 22 19 44 20 48 0 4 9 29 21 55 12 26
27 61 35 77 7 17 34 81 59 143 126 313 134 330 164 341 34 12 36 12 64 2z"/>
<path d="M4483 3313 c-7 -15 -18 -44 -24 -63 -7 -19 -15 -39 -19 -45 -4 -5
-13 -28 -20 -50 -7 -22 -16 -44 -20 -50 -4 -5 -13 -28 -20 -50 -7 -22 -16 -44
-20 -50 -22 -31 -17 -43 33 -81 29 -21 57 -43 63 -49 6 -5 26 -21 44 -35 18
-14 38 -30 44 -35 6 -6 45 -36 87 -68 41 -31 91 -71 109 -87 18 -16 35 -28 37
-26 4 3 -25 79 -62 161 -7 17 -16 41 -20 55 -4 14 -11 30 -15 35 -4 6 -13 28
-20 50 -7 22 -16 45 -20 50 -4 6 -22 48 -39 95 -18 47 -38 99 -46 115 -7 17
-22 50 -33 75 -11 25 -21 53 -23 63 -3 14 -7 12 -16 -10z"/>
<path d="M2403 1343 c-3 -10 -14 -37 -24 -60 -11 -23 -19 -45 -19 -48 0 -4 -6
-21 -14 -38 -8 -18 -29 -66 -46 -107 -17 -41 -38 -89 -45 -105 -8 -17 -18 -41
-23 -55 -6 -14 -17 -42 -26 -62 l-16 -38 40 0 c22 0 40 4 40 10 0 5 11 33 24
62 13 29 29 70 36 91 6 20 16 37 21 37 9 0 152 -111 174 -134 30 -32 88 -67
108 -64 42 6 30 48 -92 320 -12 26 -21 51 -21 55 0 4 -6 20 -14 35 -8 14 -19
43 -26 65 -7 21 -18 41 -24 45 -20 13 -46 8 -53 -9z m93 -238 c25 -66 51 -129
62 -149 3 -5 -1 -5 -9 -1 -12 8 -23 17 -69 55 -18 16 -63 50 -94 73 -15 11
-16 17 -7 33 6 10 21 46 32 78 l22 60 18 -40 c10 -21 30 -70 45 -109z"/>
<path d="M2982 1348 c-9 -9 -12 -82 -12 -265 l0 -253 35 0 35 0 0 195 c0 107
3 195 8 195 4 0 14 -11 22 -25 8 -13 74 -101 145 -194 112 -147 134 -170 158
-171 l27 0 0 259 0 259 -30 4 -30 4 -2 -199 -3 -199 -57 73 c-32 41 -64 82
-70 91 -178 236 -197 255 -226 226z"/>
<path d="M3833 1350 c-70 -22 -103 -103 -68 -170 14 -28 121 -99 172 -114 44
-14 114 -59 130 -83 15 -22 15 -28 2 -51 -29 -52 -127 -63 -262 -29 l-57 14
-7 -25 c-9 -36 13 -48 114 -63 176 -26 292 25 293 128 0 69 -42 107 -193 174
-131 57 -166 107 -108 148 23 17 44 21 106 21 42 0 96 -5 121 -11 50 -13 49
-14 57 22 6 22 3 28 -16 34 -38 11 -250 15 -284 5z"/>
<path d="M4513 1353 l-33 -4 0 -260 0 -259 35 0 35 0 0 265 c0 146 -1 264 -2
263 -2 0 -18 -3 -35 -5z"/>
<path d="M5678 1352 l-38 -3 0 -240 c0 -147 4 -248 10 -260 10 -18 23 -19 180
-19 l170 0 0 35 0 35 -140 0 -140 0 -2 228 -3 227 -37 -3z"/>
<path d="M6384 1351 c-108 -28 -147 -147 -73 -221 28 -27 28 -29 9 -35 -35
-11 -64 -64 -64 -116 0 -90 66 -143 190 -155 60 -5 210 9 222 21 3 2 1 16 -2
31 -6 23 -11 25 -39 20 -190 -34 -297 -5 -297 83 0 27 7 44 26 62 23 22 35 24
135 27 l110 4 -3 26 c-3 27 -4 27 -98 32 -104 6 -129 15 -150 54 -18 35 -4 74
35 97 34 20 186 26 242 10 29 -9 31 -7 37 22 3 16 4 32 2 35 -9 8 -251 11
-282 3z"/>
<path d="M4917 1343 c-4 -3 -7 -118 -7 -254 0 -216 2 -248 16 -253 26 -10 281
-7 309 4 15 6 42 26 61 45 30 31 34 41 34 89 0 44 -5 60 -27 86 -14 18 -35 35
-45 39 -18 6 -18 8 2 29 63 67 47 167 -33 205 -27 13 -65 17 -169 17 -74 0
-138 -3 -141 -7z m262 -61 c66 -33 61 -109 -9 -144 -24 -13 -59 -18 -112 -18
l-78 0 0 90 0 90 83 0 c56 -1 93 -6 116 -18z m31 -225 c37 -19 54 -56 46 -101
-10 -52 -46 -66 -176 -66 l-100 0 0 90 0 90 103 0 c61 0 112 -5 127 -13z"/>
</g>
</svg>
